<svg id="Vrstva_1" data-name="Vrstva 1" xmlns="http://www.w3.org/2000/svg" xmlns:xlink="http://www.w3.org/1999/xlink" viewBox="0 0 1920 1080"><defs><style>.cls-1,.cls-4{fill:none;}.cls-2{clip-path:url(#clip-path);}.cls-3{fill:url(#Nepojmenovaný_přechod_2);}.cls-4{stroke:#fff;stroke-miterlimit:10;}.cls-5{fill:#fff;}</style><clipPath id="clip-path"><path class="cls-1" d="M0,0V963.14a12099.29,12099.29,0,0,1,1920,0V0Z"/></clipPath><radialGradient id="Nepojmenovaný_přechod_2" cx="0.51" cy="1081.62" r="2.51" gradientTransform="matrix(866.38, 0, 0, -737.77, 50.25, 797704.48)" gradientUnits="userSpaceOnUse"><stop offset="0" stop-color="#6868fa"/><stop offset="0.99" stop-color="#4524cb"/></radialGradient></defs><g id="Group_35" data-name="Group 35"><g class="cls-2"><g id="Group_34" data-name="Group 34"><path id="Path_45" data-name="Path 45" class="cls-3" d="M-1.81.65V963.79a12112.26,12112.26,0,0,1,1921,0V.65Z"/><path id="Path_46" data-name="Path 46" class="cls-4" d="M335.89-701.6S517.62-240.52,256,338.9,367.05,1346.55,868.06,1350"/><path id="Path_47" data-name="Path 47" class="cls-4" d="M457.18-561.6S643.27-256.12,478,100.29,66.94,853.2,741.87,1211.15"/><path id="Path_48" data-name="Path 48" class="cls-4" d="M548.13,1751.55c-7-7.72-694.27-262-502.77-802.25S90.78,165.43-320-130.52"/><path id="Path_49" data-name="Path 49" class="cls-4" d="M2229.94-894s13.79,503.11-423.54,932.26-235.25,981,228.45,1191.77"/><path id="Path_50" data-name="Path 50" class="cls-4" d="M2336.26-641s70.08,360.56-202.92,622.75-634.2,528.21-128.17,1140"/><path id="Path_51" data-name="Path 51" class="cls-4" d="M1790.67,1202.48c-3.86-10-674.27-483.86-315.2-905.71S1780.81-411.7,1499-856.55"/><rect id="Rectangle_4" data-name="Rectangle 4" class="cls-1" x="-1.81" y="0.65" width="1470.63" height="1089.22"/><g id="Group_27" data-name="Group 27"><g id="Group_22" data-name="Group 22"><ellipse id="Ellipse_20" data-name="Ellipse 20" class="cls-5" cx="1608.26" cy="636.27" rx="3.26" ry="3.62"/><ellipse id="Ellipse_21" data-name="Ellipse 21" class="cls-5" cx="1648.38" cy="636.27" rx="3.26" ry="3.62"/><ellipse id="Ellipse_22" data-name="Ellipse 22" class="cls-5" cx="1688.51" cy="636.27" rx="3.26" ry="3.62"/><ellipse id="Ellipse_23" data-name="Ellipse 23" class="cls-5" cx="1728.64" cy="636.27" rx="3.26" ry="3.62"/><path id="Path_52" data-name="Path 52" class="cls-5" d="M1772,636.27a3.27,3.27,0,1,1-3.25-3.61A3.44,3.44,0,0,1,1772,636.27Z"/></g><g id="Group_23" data-name="Group 23"><ellipse id="Ellipse_24" data-name="Ellipse 24" class="cls-5" cx="1608.26" cy="675.37" rx="3.26" ry="3.62"/><ellipse id="Ellipse_25" data-name="Ellipse 25" class="cls-5" cx="1648.38" cy="675.37" rx="3.26" ry="3.62"/><ellipse id="Ellipse_26" data-name="Ellipse 26" class="cls-5" cx="1688.51" cy="675.37" rx="3.26" ry="3.62"/><ellipse id="Ellipse_27" data-name="Ellipse 27" class="cls-5" cx="1728.64" cy="675.37" rx="3.26" ry="3.62"/><path id="Path_53" data-name="Path 53" class="cls-5" d="M1772,675.37a3.27,3.27,0,1,1-3.25-3.61A3.44,3.44,0,0,1,1772,675.37Z"/></g><g id="Group_24" data-name="Group 24"><ellipse id="Ellipse_28" data-name="Ellipse 28" class="cls-5" cx="1608.26" cy="714.47" rx="3.26" ry="3.62"/><ellipse id="Ellipse_29" data-name="Ellipse 29" class="cls-5" cx="1648.38" cy="714.47" rx="3.26" ry="3.62"/><ellipse id="Ellipse_30" data-name="Ellipse 30" class="cls-5" cx="1688.51" cy="714.47" rx="3.26" ry="3.62"/><ellipse id="Ellipse_31" data-name="Ellipse 31" class="cls-5" cx="1728.64" cy="714.47" rx="3.26" ry="3.62"/><path id="Path_54" data-name="Path 54" class="cls-5" d="M1772,714.47a3.27,3.27,0,1,1-3.25-3.61A3.44,3.44,0,0,1,1772,714.47Z"/></g><g id="Group_25" data-name="Group 25"><ellipse id="Ellipse_32" data-name="Ellipse 32" class="cls-5" cx="1608.26" cy="753.57" rx="3.26" ry="3.62"/><ellipse id="Ellipse_33" data-name="Ellipse 33" class="cls-5" cx="1648.38" cy="753.57" rx="3.26" ry="3.62"/><ellipse id="Ellipse_34" data-name="Ellipse 34" class="cls-5" cx="1688.51" cy="753.57" rx="3.26" ry="3.62"/><ellipse id="Ellipse_35" data-name="Ellipse 35" class="cls-5" cx="1728.64" cy="753.57" rx="3.26" ry="3.62"/><path id="Path_55" data-name="Path 55" class="cls-5" d="M1772,753.57a3.27,3.27,0,1,1-3.25-3.61A3.44,3.44,0,0,1,1772,753.57Z"/></g><g id="Group_26" data-name="Group 26"><path id="Path_56" data-name="Path 56" class="cls-5" d="M1611.51,792.67a3.27,3.27,0,1,1-3.25-3.61A3.45,3.45,0,0,1,1611.51,792.67Z"/><path id="Path_57" data-name="Path 57" class="cls-5" d="M1651.64,792.67a3.27,3.27,0,1,1-3.26-3.61A3.45,3.45,0,0,1,1651.64,792.67Z"/><path id="Path_58" data-name="Path 58" class="cls-5" d="M1691.77,792.67a3.27,3.27,0,1,1-3.26-3.61A3.45,3.45,0,0,1,1691.77,792.67Z"/><path id="Path_59" data-name="Path 59" class="cls-5" d="M1731.89,792.67a3.27,3.27,0,1,1-3.25-3.61A3.44,3.44,0,0,1,1731.89,792.67Z"/><path id="Path_60" data-name="Path 60" class="cls-5" d="M1772,792.67a3.27,3.27,0,1,1-3.25-3.61A3.44,3.44,0,0,1,1772,792.67Z"/></g></g><g id="Group_33" data-name="Group 33"><g id="Group_28" data-name="Group 28"><path id="Path_61" data-name="Path 61" class="cls-5" d="M244.49,635.81a2.1,2.1,0,1,1-2.09-2.32A2.21,2.21,0,0,1,244.49,635.81Z"/><path id="Path_62" data-name="Path 62" class="cls-5" d="M270.19,635.81a2.1,2.1,0,1,1-2.09-2.32A2.21,2.21,0,0,1,270.19,635.81Z"/><path id="Path_63" data-name="Path 63" class="cls-5" d="M295.89,635.81a2.1,2.1,0,1,1-2.09-2.32A2.22,2.22,0,0,1,295.89,635.81Z"/><path id="Path_64" data-name="Path 64" class="cls-5" d="M321.58,635.81a2.1,2.1,0,1,1-2.08-2.32A2.21,2.21,0,0,1,321.58,635.81Z"/><ellipse id="Ellipse_36" data-name="Ellipse 36" class="cls-5" cx="345.2" cy="635.81" rx="2.08" ry="2.32"/></g><g id="Group_29" data-name="Group 29"><path id="Path_65" data-name="Path 65" class="cls-5" d="M244.49,660.85a2.1,2.1,0,1,1-2.09-2.32A2.21,2.21,0,0,1,244.49,660.85Z"/><path id="Path_66" data-name="Path 66" class="cls-5" d="M270.19,660.85a2.1,2.1,0,1,1-2.09-2.32A2.21,2.21,0,0,1,270.19,660.85Z"/><path id="Path_67" data-name="Path 67" class="cls-5" d="M295.89,660.85a2.1,2.1,0,1,1-2.09-2.32A2.21,2.21,0,0,1,295.89,660.85Z"/><path id="Path_68" data-name="Path 68" class="cls-5" d="M321.58,660.85a2.1,2.1,0,1,1-2.08-2.32A2.2,2.2,0,0,1,321.58,660.85Z"/><ellipse id="Ellipse_37" data-name="Ellipse 37" class="cls-5" cx="345.2" cy="660.85" rx="2.08" ry="2.32"/></g><g id="Group_30" data-name="Group 30"><path id="Path_69" data-name="Path 69" class="cls-5" d="M244.49,685.89a2.1,2.1,0,1,1-2.09-2.32A2.21,2.21,0,0,1,244.49,685.89Z"/><path id="Path_70" data-name="Path 70" class="cls-5" d="M270.19,685.89a2.1,2.1,0,1,1-2.09-2.32A2.21,2.21,0,0,1,270.19,685.89Z"/><path id="Path_71" data-name="Path 71" class="cls-5" d="M295.89,685.89a2.1,2.1,0,1,1-2.09-2.32A2.22,2.22,0,0,1,295.89,685.89Z"/><path id="Path_72" data-name="Path 72" class="cls-5" d="M321.58,685.89a2.1,2.1,0,1,1-2.08-2.32A2.21,2.21,0,0,1,321.58,685.89Z"/><path id="Path_73" data-name="Path 73" class="cls-5" d="M347.28,685.89a2.1,2.1,0,1,1-2.08-2.32A2.21,2.21,0,0,1,347.28,685.89Z"/></g><g id="Group_31" data-name="Group 31"><path id="Path_74" data-name="Path 74" class="cls-5" d="M244.49,710.93a2.1,2.1,0,1,1-2.09-2.32A2.22,2.22,0,0,1,244.49,710.93Z"/><path id="Path_75" data-name="Path 75" class="cls-5" d="M270.19,710.93a2.1,2.1,0,1,1-2.09-2.32A2.22,2.22,0,0,1,270.19,710.93Z"/><path id="Path_76" data-name="Path 76" class="cls-5" d="M295.89,710.93a2.1,2.1,0,1,1-2.09-2.32A2.22,2.22,0,0,1,295.89,710.93Z"/><path id="Path_77" data-name="Path 77" class="cls-5" d="M321.58,710.93a2.1,2.1,0,1,1-2.08-2.32A2.22,2.22,0,0,1,321.58,710.93Z"/><path id="Path_78" data-name="Path 78" class="cls-5" d="M347.28,710.93a2.1,2.1,0,1,1-2.08-2.32A2.22,2.22,0,0,1,347.28,710.93Z"/></g><g id="Group_32" data-name="Group 32"><path id="Path_79" data-name="Path 79" class="cls-5" d="M244.49,736a2.1,2.1,0,1,1-2.09-2.32A2.21,2.21,0,0,1,244.49,736Z"/><path id="Path_80" data-name="Path 80" class="cls-5" d="M270.19,736a2.1,2.1,0,1,1-2.09-2.32A2.21,2.21,0,0,1,270.19,736Z"/><path id="Path_81" data-name="Path 81" class="cls-5" d="M295.89,736a2.1,2.1,0,1,1-2.09-2.32A2.21,2.21,0,0,1,295.89,736Z"/><path id="Path_82" data-name="Path 82" class="cls-5" d="M321.58,736a2.1,2.1,0,1,1-2.08-2.32A2.2,2.2,0,0,1,321.58,736Z"/><ellipse id="Ellipse_38" data-name="Ellipse 38" class="cls-5" cx="345.2" cy="735.97" rx="2.08" ry="2.32"/></g></g></g></g></g></svg>