<svg id="Vrstva_1" data-name="Vrstva 1" xmlns="http://www.w3.org/2000/svg" xmlns:xlink="http://www.w3.org/1999/xlink" viewBox="0 0 424 82"><defs><style>.cls-1,.cls-3{fill:none;}.cls-2{clip-path:url(#clip-path);}.cls-3{stroke:#fff;stroke-miterlimit:10;}.cls-4{clip-path:url(#clip-path-2);}.cls-5{fill:#4524cb;}.cls-6{fill:#4625cc;}.cls-7{fill:#4626cc;}.cls-8{fill:#4727cd;}.cls-9{fill:#4728ce;}.cls-10{fill:#4829cf;}.cls-11{fill:#482acf;}.cls-12{fill:#492bd0;}.cls-13{fill:#492cd1;}.cls-14{fill:#4a2dd1;}.cls-15{fill:#4a2ed2;}.cls-16{fill:#4b2fd3;}.cls-17{fill:#4b30d3;}.cls-18{fill:#4c31d4;}.cls-19{fill:#4c32d5;}.cls-20{fill:#4d33d6;}.cls-21{fill:#4d34d6;}.cls-22{fill:#4e35d7;}.cls-23{fill:#4e36d8;}.cls-24{fill:#4f37d8;}.cls-25{fill:#4f38d9;}.cls-26{fill:#5039da;}.cls-27{fill:#503ada;}.cls-28{fill:#513bdb;}.cls-29{fill:#523cdc;}.cls-30{fill:#523ddd;}.cls-31{fill:#533edd;}.cls-32{fill:#533fde;}.cls-33{fill:#5440df;}.cls-34{fill:#5441df;}.cls-35{fill:#5542e0;}.cls-36{fill:#5543e1;}.cls-37{fill:#5644e1;}.cls-38{fill:#5645e2;}.cls-39{fill:#5747e3;}.cls-40{fill:#5748e4;}.cls-41{fill:#5849e4;}.cls-42{fill:#584ae5;}.cls-43{fill:#594be6;}.cls-44{fill:#594ce6;}.cls-45{fill:#5a4de7;}.cls-46{fill:#5a4ee8;}.cls-47{fill:#5b4fe8;}.cls-48{fill:#5b50e9;}.cls-49{fill:#5c51ea;}.cls-50{fill:#5d52eb;}.cls-51{fill:#5d53eb;}.cls-52{fill:#5e54ec;}.cls-53{fill:#5e55ed;}.cls-54{fill:#5f56ed;}.cls-55{fill:#5f57ee;}.cls-56{fill:#6058ef;}.cls-57{fill:#6059ef;}.cls-58{fill:#615af0;}.cls-59{fill:#615bf1;}.cls-60{fill:#625cf2;}.cls-61{fill:#625df2;}.cls-62{fill:#635ef3;}.cls-63{fill:#635ff4;}.cls-64{fill:#6460f4;}.cls-65{fill:#6461f5;}.cls-66{fill:#6562f6;}.cls-67{fill:#6563f6;}.cls-68{fill:#6664f7;}.cls-69{fill:#6665f8;}.cls-70{fill:#6766f9;}.cls-71{fill:#6767f9;}.cls-72{fill:#6868fa;}.cls-73{isolation:isolate;}</style><clipPath id="clip-path"><path class="cls-1" d="M-2084-150V813.14a12099.29,12099.29,0,0,1,1920,0V-150Z"/></clipPath><clipPath id="clip-path-2"><path class="cls-1" d="M39.25,4.34A36.66,36.66,0,1,0,75.91,41,36.66,36.66,0,0,0,39.25,4.34ZM29.79,42.66l6.37-9.15h0a2.23,2.23,0,0,1,3.11-.44l7.32,5.51,5.17-7.42a2.23,2.23,0,0,1,3.58,2.67L48.85,43h0a2.22,2.22,0,0,1-3.11.44h0L38.42,38l-5.18,7.42a2.21,2.21,0,0,1-1.72.9v-.05a2.23,2.23,0,0,1-1.73-3.57Zm27.8,18.06h-30a8.93,8.93,0,0,1-8.92-8.92V23.52a2.23,2.23,0,1,1,4.45,0V51.79a4.47,4.47,0,0,0,4.47,4.45h30v0a2.23,2.23,0,1,1,.12,4.45h-.12Z"/></clipPath></defs><g id="Group_35" data-name="Group 35"><g class="cls-2"><g id="Group_34" data-name="Group 34"><path id="Path_49" data-name="Path 49" class="cls-3" d="M145.94-1044S159.73-540.93-277.6-111.78-512.85,869.18-49.15,1080"/><path id="Path_50" data-name="Path 50" class="cls-3" d="M252.26-791S322.34-430.47,49.34-168.28s-634.2,528.21-128.17,1140"/></g></g></g><g id="Group_36" data-name="Group 36"><g id="Path_84" data-name="Path 84"><g class="cls-4"><rect class="cls-5" x="18.68" y="21.29" width="41.23" height="39.42"/><polygon class="cls-5" points="61.78 41 61.78 19.42 16.81 19.42 16.81 62.59 61.78 62.59 61.78 41"/><polygon class="cls-6" points="61.78 41 61.78 19.42 16.81 19.42 16.81 62.59 61.78 62.59 61.78 41"/><polygon class="cls-7" points="61.78 41 61.78 19.42 16.81 19.42 16.81 62.59 61.78 62.59 61.78 41"/><polygon class="cls-8" points="61.78 41 61.78 19.42 16.81 19.42 16.81 62.59 61.78 62.59 61.78 41"/><polygon class="cls-9" points="61.78 41 61.78 19.42 16.81 19.42 16.81 62.59 61.78 62.59 61.78 41"/><polygon class="cls-10" points="61.78 41 61.78 19.42 16.81 19.42 16.81 62.59 61.78 62.59 61.78 41"/><polygon class="cls-11" points="61.78 41 61.78 19.42 16.81 19.42 16.81 62.59 61.78 62.59 61.78 41"/><polygon class="cls-12" points="61.78 41 61.78 19.42 16.81 19.42 16.81 62.59 61.78 62.59 61.78 41"/><polygon class="cls-13" points="61.78 41 61.78 19.42 16.81 19.42 16.81 62.59 61.78 62.59 61.78 41"/><polygon class="cls-14" points="61.78 41 61.78 19.42 16.81 19.42 16.81 62.59 61.78 62.59 61.78 41"/><polygon class="cls-15" points="61.78 41 61.78 19.42 16.81 19.42 16.81 62.59 61.78 62.59 61.78 41"/><polygon class="cls-16" points="61.78 41 61.78 19.42 16.81 19.42 16.81 62.59 61.78 62.59 61.78 41"/><polygon class="cls-17" points="61.78 41 61.78 19.42 16.81 19.42 16.81 62.59 61.78 62.59 61.78 41"/><polygon class="cls-18" points="61.78 41 61.78 19.42 16.81 19.42 16.81 62.59 61.78 62.59 61.78 41"/><polygon class="cls-19" points="61.78 41 61.78 19.42 16.81 19.42 16.81 62.59 61.78 62.59 61.78 41"/><polygon class="cls-20" points="61.78 41 61.78 19.42 16.81 19.42 16.81 62.59 61.78 62.59 61.78 41"/><polygon class="cls-21" points="61.78 41 61.78 19.42 16.81 19.42 16.81 62.59 61.78 62.59 61.78 41"/><polygon class="cls-22" points="61.78 41 61.78 19.42 16.81 19.42 16.81 62.59 61.78 62.59 61.78 41"/><polygon class="cls-23" points="61.78 41 61.78 19.42 16.81 19.42 16.81 62.59 61.78 62.59 61.78 41"/><polygon class="cls-24" points="61.78 41 61.78 19.42 16.81 19.42 16.81 62.59 61.78 62.59 61.78 41"/><polygon class="cls-25" points="61.78 41 61.78 19.42 16.81 19.42 16.81 62.59 61.78 62.59 61.78 41"/><polygon class="cls-26" points="61.78 41 61.78 19.42 16.81 19.42 16.81 62.59 61.78 62.59 61.78 41"/><polygon class="cls-27" points="61.78 41 61.78 19.42 16.81 19.42 16.81 62.59 61.78 62.59 61.78 41"/><polygon class="cls-28" points="61.78 41 61.78 19.42 16.81 19.42 16.81 62.59 61.78 62.59 61.78 41"/><polygon class="cls-29" points="61.78 41 61.78 19.42 16.81 19.42 16.81 62.59 61.78 62.59 61.78 41"/><polygon class="cls-30" points="61.78 41 61.78 19.42 16.81 19.42 16.81 62.59 61.78 62.59 61.78 41"/><polygon class="cls-31" points="61.78 41 61.78 19.42 16.81 19.42 16.81 62.59 61.78 62.59 61.78 41"/><polygon class="cls-32" points="61.78 41 61.78 19.42 16.81 19.42 16.81 62.59 61.78 62.59 61.78 41"/><polygon class="cls-33" points="61.78 41 61.78 19.42 16.81 19.42 16.81 62.59 61.78 62.59 61.78 41"/><polygon class="cls-34" points="61.78 41 61.78 19.42 16.81 19.42 16.81 62.59 61.78 62.59 61.78 41"/><polygon class="cls-35" points="61.78 41 61.78 19.42 16.81 19.42 16.81 62.59 61.78 62.59 61.78 41"/><polygon class="cls-36" points="61.78 41 61.78 19.42 16.81 19.42 16.81 62.59 61.78 62.59 61.78 41"/><polygon class="cls-37" points="61.78 41 61.78 19.42 16.81 19.42 16.81 62.59 61.78 62.59 61.78 41"/><polygon class="cls-38" points="61.78 41 61.78 19.42 16.81 19.42 16.81 62.59 61.78 62.59 61.78 41"/><polygon class="cls-39" points="61.78 41 61.78 19.42 16.81 19.42 16.81 62.59 61.78 62.59 61.78 41"/><polygon class="cls-40" points="61.78 41 61.78 19.42 16.81 19.42 16.81 62.59 61.78 62.59 61.78 41"/><polygon class="cls-41" points="61.78 41 61.78 19.42 16.81 19.42 16.81 62.59 61.78 62.59 61.78 41"/><polygon class="cls-42" points="61.78 41 61.78 19.42 16.81 19.42 16.81 62.59 61.78 62.59 61.78 41"/><polygon class="cls-43" points="61.78 41 61.78 19.42 16.81 19.42 16.81 62.59 61.78 62.59 61.78 41"/><polygon class="cls-44" points="61.78 41 61.78 19.42 16.81 19.42 16.81 62.59 61.78 62.59 61.78 41"/><polygon class="cls-45" points="61.78 41 61.78 19.42 16.81 19.42 16.81 62.59 61.78 62.59 61.78 41"/><polygon class="cls-46" points="61.78 41 61.78 19.42 16.81 19.42 16.81 62.59 61.78 62.59 61.78 41"/><polygon class="cls-47" points="61.78 41 61.78 19.42 16.81 19.42 16.81 62.59 61.78 62.59 61.78 41"/><polygon class="cls-48" points="61.78 41 61.78 19.42 16.81 19.42 16.81 62.59 61.78 62.59 61.78 41"/><polygon class="cls-49" points="61.78 41 61.78 19.42 16.81 19.42 16.81 62.59 61.78 62.59 61.78 41"/><polygon class="cls-50" points="61.78 41 61.78 19.42 16.81 19.42 16.81 62.59 61.78 62.59 61.78 41"/><polygon class="cls-51" points="61.78 41 61.78 19.42 16.81 19.42 16.81 62.59 61.78 62.59 61.78 41"/><polygon class="cls-52" points="61.78 41 61.78 19.42 16.81 19.42 16.81 62.59 61.78 62.59 61.78 41"/><polygon class="cls-53" points="61.78 41 61.78 19.42 16.81 19.42 16.81 62.59 61.78 62.59 61.78 41"/><polygon class="cls-54" points="61.78 41 61.78 19.42 16.81 19.42 16.81 62.59 61.78 62.59 61.78 41"/><polygon class="cls-55" points="61.78 41 61.78 19.42 16.81 19.42 16.81 62.59 61.78 62.59 61.78 41"/><polygon class="cls-56" points="61.78 41 61.78 19.42 16.81 19.42 16.81 62.59 61.78 62.59 61.78 41"/><polygon class="cls-57" points="61.78 41 61.78 19.42 16.81 19.42 16.81 62.59 61.78 62.59 61.78 41"/><polygon class="cls-58" points="61.78 41 61.78 19.42 16.81 19.42 16.81 62.59 61.78 62.59 61.78 41"/><polygon class="cls-59" points="61.78 41 61.78 19.42 16.81 19.42 16.81 62.59 61.78 62.59 61.78 41"/><circle class="cls-60" cx="39.25" cy="41" r="32.91"/><circle class="cls-61" cx="39.25" cy="41" r="30.38"/><circle class="cls-62" cx="39.25" cy="41" r="27.85"/><circle class="cls-63" cx="39.25" cy="41" r="25.32"/><circle class="cls-64" cx="39.25" cy="41" r="22.79"/><circle class="cls-65" cx="39.25" cy="41" r="20.25"/><circle class="cls-66" cx="39.25" cy="41" r="17.72"/><circle class="cls-67" cx="39.25" cy="41" r="15.19"/><circle class="cls-68" cx="39.25" cy="41" r="12.66"/><circle class="cls-69" cx="39.25" cy="41" r="10.13"/><circle class="cls-70" cx="39.25" cy="41" r="7.6"/><circle class="cls-71" cx="39.25" cy="41" r="5.06"/><circle class="cls-72" cx="39.25" cy="41" r="2.53"/><rect class="cls-5" x="29.31" y="30.02" width="26.72" height="16.26"/><polygon class="cls-5" points="57.9 41 57.9 28.15 27.45 28.15 27.45 48.15 57.9 48.15 57.9 41"/><polygon class="cls-6" points="57.9 41 57.9 28.15 27.45 28.15 27.45 48.15 57.9 48.15 57.9 41"/><polygon class="cls-7" points="57.9 41 57.9 28.15 27.45 28.15 27.45 48.15 57.9 48.15 57.9 41"/><polygon class="cls-8" points="57.9 41 57.9 28.15 27.45 28.15 27.45 48.15 57.9 48.15 57.9 41"/><polygon class="cls-9" points="57.9 41 57.9 28.15 27.45 28.15 27.45 48.15 57.9 48.15 57.9 41"/><polygon class="cls-10" points="57.9 41 57.9 28.15 27.45 28.15 27.45 48.15 57.9 48.15 57.9 41"/><polygon class="cls-11" points="57.9 41 57.9 28.15 27.45 28.15 27.45 48.15 57.9 48.15 57.9 41"/><polygon class="cls-12" points="57.9 41 57.9 28.15 27.45 28.15 27.45 48.15 57.9 48.15 57.9 41"/><polygon class="cls-13" points="57.9 41 57.9 28.15 27.45 28.15 27.45 48.15 57.9 48.15 57.9 41"/><polygon class="cls-14" points="57.9 41 57.9 28.15 27.45 28.15 27.45 48.15 57.9 48.15 57.9 41"/><polygon class="cls-15" points="57.9 41 57.9 28.15 27.45 28.15 27.45 48.15 57.9 48.15 57.9 41"/><polygon class="cls-16" points="57.9 41 57.9 28.15 27.45 28.15 27.45 48.15 57.9 48.15 57.9 41"/><polygon class="cls-17" points="57.9 41 57.9 28.15 27.45 28.15 27.45 48.15 57.9 48.15 57.9 41"/><polygon class="cls-18" points="57.9 41 57.9 28.15 27.45 28.15 27.45 48.15 57.9 48.15 57.9 41"/><polygon class="cls-19" points="57.9 41 57.9 28.15 27.45 28.15 27.45 48.15 57.9 48.15 57.9 41"/><polygon class="cls-20" points="57.9 41 57.9 28.15 27.45 28.15 27.45 48.15 57.9 48.15 57.9 41"/><polygon class="cls-21" points="57.9 41 57.9 28.15 27.45 28.15 27.45 48.15 57.9 48.15 57.9 41"/><polygon class="cls-22" points="57.9 41 57.9 28.15 27.45 28.15 27.45 48.15 57.9 48.15 57.9 41"/><polygon class="cls-23" points="57.9 41 57.9 28.15 27.45 28.15 27.45 48.15 57.9 48.15 57.9 41"/><polygon class="cls-24" points="57.9 41 57.9 28.15 27.45 28.15 27.45 48.15 57.9 48.15 57.9 41"/><polygon class="cls-25" points="57.9 41 57.9 28.15 27.45 28.15 27.45 48.15 57.9 48.15 57.9 41"/><polygon class="cls-26" points="57.9 41 57.9 28.15 27.45 28.15 27.45 48.15 57.9 48.15 57.9 41"/><polygon class="cls-27" points="57.9 41 57.9 28.15 27.45 28.15 27.45 48.15 57.9 48.15 57.9 41"/><polygon class="cls-28" points="57.9 41 57.9 28.15 27.45 28.15 27.45 48.15 57.9 48.15 57.9 41"/><polygon class="cls-29" points="57.9 41 57.9 28.15 27.45 28.15 27.45 48.15 57.9 48.15 57.9 41"/><polygon class="cls-30" points="57.9 41 57.9 28.15 27.45 28.15 27.45 48.15 57.9 48.15 57.9 41"/><polygon class="cls-31" points="57.9 41 57.9 28.15 27.45 28.15 27.45 48.15 57.9 48.15 57.9 41"/><polygon class="cls-32" points="57.9 41 57.9 28.15 27.45 28.15 27.45 48.15 57.9 48.15 57.9 41"/><polygon class="cls-33" points="57.9 41 57.9 28.15 27.45 28.15 27.45 48.15 57.9 48.15 57.9 41"/><polygon class="cls-34" points="57.9 41 57.9 28.15 27.45 28.15 27.45 48.15 57.9 48.15 57.9 41"/><polygon class="cls-35" points="57.9 41 57.9 28.15 27.45 28.15 27.45 48.15 57.9 48.15 57.9 41"/><polygon class="cls-36" points="57.9 41 57.9 28.15 27.45 28.15 27.45 48.15 57.9 48.15 57.9 41"/><polygon class="cls-37" points="57.9 41 57.9 28.15 27.45 28.15 27.45 48.15 57.9 48.15 57.9 41"/><polygon class="cls-38" points="57.9 41 57.9 28.15 27.45 28.15 27.45 48.15 57.9 48.15 57.9 41"/><polygon class="cls-39" points="57.9 41 57.9 28.15 27.45 28.15 27.45 48.15 57.9 48.15 57.9 41"/><polygon class="cls-40" points="57.9 41 57.9 28.15 27.45 28.15 27.45 48.15 57.9 48.15 57.9 41"/><polygon class="cls-41" points="57.9 41 57.9 28.15 27.45 28.15 27.45 48.15 57.9 48.15 57.9 41"/><polygon class="cls-42" points="57.9 41 57.9 28.15 27.45 28.15 27.45 48.15 57.9 48.15 57.9 41"/><polygon class="cls-43" points="57.9 41 57.9 28.15 27.45 28.15 27.45 48.15 57.9 48.15 57.9 41"/><polygon class="cls-44" points="57.9 41 57.9 28.15 27.45 28.15 27.45 48.15 57.9 48.15 57.9 41"/><polygon class="cls-45" points="57.9 41 57.9 28.15 27.45 28.15 27.45 48.15 57.9 48.15 57.9 41"/><polygon class="cls-46" points="57.9 41 57.9 28.15 27.45 28.15 27.45 48.15 57.9 48.15 57.9 41"/><polygon class="cls-47" points="57.9 41 57.9 28.15 27.45 28.15 27.45 48.15 57.9 48.15 57.9 41"/><polygon class="cls-48" points="57.9 41 57.9 28.15 27.45 28.15 27.45 48.15 57.9 48.15 57.9 41"/><polygon class="cls-49" points="57.9 41 57.9 28.15 27.45 28.15 27.45 48.15 57.9 48.15 57.9 41"/><polygon class="cls-50" points="57.9 41 57.9 28.15 27.45 28.15 27.45 48.15 57.9 48.15 57.9 41"/><polygon class="cls-51" points="57.9 41 57.9 28.15 27.45 28.15 27.45 48.15 57.9 48.15 57.9 41"/><polygon class="cls-52" points="57.9 41 57.9 28.15 27.45 28.15 27.45 48.15 57.9 48.15 57.9 41"/><polygon class="cls-53" points="57.9 41 57.9 28.15 27.45 28.15 27.45 48.15 57.9 48.15 57.9 41"/><polygon class="cls-54" points="57.9 41 57.9 28.15 27.45 28.15 27.45 48.15 57.9 48.15 57.9 41"/><polygon class="cls-55" points="57.9 41 57.9 28.15 27.45 28.15 27.45 48.15 57.9 48.15 57.9 41"/><polygon class="cls-56" points="57.9 41 57.9 28.15 27.45 28.15 27.45 48.15 57.9 48.15 57.9 41"/><polygon class="cls-57" points="57.9 41 57.9 28.15 27.45 28.15 27.45 48.15 57.9 48.15 57.9 41"/><polygon class="cls-58" points="57.9 41 57.9 28.15 27.45 28.15 27.45 48.15 57.9 48.15 57.9 41"/><polygon class="cls-59" points="57.9 41 57.9 28.15 27.45 28.15 27.45 48.15 57.9 48.15 57.9 41"/><polygon class="cls-60" points="57.9 41 57.9 28.15 27.45 28.15 27.45 48.15 57.9 48.15 57.9 41"/><polygon class="cls-61" points="57.9 41 57.9 28.15 27.45 28.15 27.45 48.15 57.9 48.15 57.9 41"/><polygon class="cls-62" points="57.9 41 57.9 28.15 27.45 28.15 27.45 48.15 57.9 48.15 57.9 41"/><path class="cls-63" d="M64.57,41A25.32,25.32,0,0,0,39.25,15.68V28.15H27.45v20h29.7V58.9A25.24,25.24,0,0,0,64.57,41Z"/><path class="cls-64" d="M62,41a22.79,22.79,0,1,0-45.57,0h11v7.15H55.36v9A22.69,22.69,0,0,0,62,41Z"/><path class="cls-65" d="M59.5,41A20.25,20.25,0,0,0,19,41h8.45v7.15H53.57v7.17A20.16,20.16,0,0,0,59.5,41Z"/><circle class="cls-66" cx="39.25" cy="41" r="17.72"/><circle class="cls-67" cx="39.25" cy="41" r="15.19"/><circle class="cls-68" cx="39.25" cy="41" r="12.66"/><circle class="cls-69" cx="39.25" cy="41" r="10.13"/><circle class="cls-70" cx="39.25" cy="41" r="7.6"/><circle class="cls-71" cx="39.25" cy="41" r="5.06"/><circle class="cls-72" cx="39.25" cy="41" r="2.53"/><rect class="cls-5" x="2.59" y="4.34" width="73.31" height="73.31"/><polygon class="cls-5" points="77.78 41 77.78 2.47 0.72 2.47 0.72 79.53 77.78 79.53 77.78 41"/><polygon class="cls-6" points="77.78 41 77.78 2.47 0.72 2.47 0.72 79.53 77.78 79.53 77.78 41"/><polygon class="cls-7" points="77.78 41 77.78 2.47 0.72 2.47 0.72 79.53 77.78 79.53 77.78 41"/><polygon class="cls-8" points="77.78 41 77.78 2.47 0.72 2.47 0.72 79.53 77.78 79.53 77.78 41"/><polygon class="cls-9" points="77.78 41 77.78 2.47 0.72 2.47 0.72 79.53 77.78 79.53 77.78 41"/><polygon class="cls-10" points="77.78 41 77.78 2.47 0.72 2.47 0.72 79.53 77.78 79.53 77.78 41"/><polygon class="cls-11" points="77.78 41 77.78 2.47 0.72 2.47 0.72 79.53 77.78 79.53 77.78 41"/><polygon class="cls-12" points="77.78 41 77.78 2.47 0.72 2.47 0.72 79.53 77.78 79.53 77.78 41"/><polygon class="cls-13" points="77.78 41 77.78 2.47 0.72 2.47 0.72 79.53 77.78 79.53 77.78 41"/><polygon class="cls-14" points="77.78 41 77.78 2.47 0.72 2.47 0.72 79.53 77.78 79.53 77.78 41"/><polygon class="cls-15" points="77.78 41 77.78 2.47 0.72 2.47 0.72 79.53 77.78 79.53 77.78 41"/><polygon class="cls-16" points="77.78 41 77.78 2.47 0.72 2.47 0.72 79.53 77.78 79.53 77.78 41"/><polygon class="cls-17" points="77.78 41 77.78 2.47 0.72 2.47 0.72 79.53 77.78 79.53 77.78 41"/><polygon class="cls-18" points="77.78 41 77.78 2.47 0.72 2.47 0.72 79.53 77.78 79.53 77.78 41"/><polygon class="cls-19" points="77.78 41 77.78 2.47 0.72 2.47 0.72 79.53 77.78 79.53 77.78 41"/><polygon class="cls-20" points="77.78 41 77.78 2.47 0.72 2.47 0.72 79.53 77.78 79.53 77.78 41"/><polygon class="cls-21" points="77.78 41 77.78 2.47 0.72 2.47 0.72 79.53 77.78 79.53 77.78 41"/><polygon class="cls-22" points="77.78 41 77.78 2.47 0.72 2.47 0.72 79.53 77.78 79.53 77.78 41"/><polygon class="cls-23" points="77.78 41 77.78 2.47 0.72 2.47 0.72 79.53 77.78 79.53 77.78 41"/><polygon class="cls-24" points="77.78 41 77.78 2.47 0.72 2.47 0.72 79.53 77.78 79.53 77.78 41"/><polygon class="cls-25" points="77.78 41 77.78 2.47 0.72 2.47 0.72 79.53 77.78 79.53 77.78 41"/><polygon class="cls-26" points="77.78 41 77.78 2.47 0.72 2.47 0.72 79.53 77.78 79.53 77.78 41"/><polygon class="cls-27" points="77.78 41 77.78 2.47 0.72 2.47 0.72 79.53 77.78 79.53 77.78 41"/><polygon class="cls-28" points="77.78 41 77.78 2.47 0.72 2.47 0.72 79.53 77.78 79.53 77.78 41"/><polygon class="cls-29" points="77.78 41 77.78 2.47 0.72 2.47 0.72 79.53 77.78 79.53 77.78 41"/><polygon class="cls-30" points="77.78 41 77.78 2.47 0.72 2.47 0.72 79.53 77.78 79.53 77.78 41"/><polygon class="cls-31" points="77.78 41 77.78 2.47 0.72 2.47 0.72 79.53 77.78 79.53 77.78 41"/><polygon class="cls-32" points="77.78 41 77.78 2.47 0.72 2.47 0.72 79.53 77.78 79.53 77.78 41"/><polygon class="cls-33" points="77.78 41 77.78 2.47 0.72 2.47 0.72 79.53 77.78 79.53 77.78 41"/><polygon class="cls-34" points="77.78 41 77.78 2.47 0.72 2.47 0.72 79.53 77.78 79.53 77.78 41"/><polygon class="cls-35" points="77.78 41 77.78 2.47 0.72 2.47 0.72 79.53 77.78 79.53 77.78 41"/><polygon class="cls-36" points="77.78 41 77.78 2.47 0.72 2.47 0.72 79.53 77.78 79.53 77.78 41"/><polygon class="cls-37" points="77.78 41 77.78 2.47 0.72 2.47 0.72 79.53 77.78 79.53 77.78 41"/><polygon class="cls-38" points="77.78 41 77.78 2.47 0.72 2.47 0.72 79.53 77.78 79.53 77.78 41"/><polygon class="cls-39" points="77.78 41 77.78 2.47 0.72 2.47 0.72 79.53 77.78 79.53 77.78 41"/><polygon class="cls-40" points="77.78 41 77.78 2.47 0.72 2.47 0.72 79.53 77.78 79.53 77.78 41"/><polygon class="cls-41" points="77.78 41 77.78 2.47 0.72 2.47 0.72 79.53 77.78 79.53 77.78 41"/><polygon class="cls-42" points="77.78 41 77.78 2.47 0.72 2.47 0.72 79.53 77.78 79.53 77.78 41"/><polygon class="cls-43" points="77.78 41 77.78 2.47 0.72 2.47 0.72 79.53 77.78 79.53 77.78 41"/><polygon class="cls-44" points="77.78 41 77.78 2.47 0.72 2.47 0.72 79.53 77.78 79.53 77.78 41"/><polygon class="cls-45" points="77.78 41 77.78 2.47 0.72 2.47 0.72 79.53 77.78 79.53 77.78 41"/><polygon class="cls-46" points="77.78 41 77.78 2.47 0.72 2.47 0.72 79.53 77.78 79.53 77.78 41"/><polygon class="cls-47" points="77.78 41 77.78 2.47 0.72 2.47 0.72 79.53 77.78 79.53 77.78 41"/><polygon class="cls-48" points="77.78 41 77.78 2.47 0.72 2.47 0.72 79.53 77.78 79.53 77.78 41"/><polygon class="cls-49" points="77.78 41 77.78 2.47 0.72 2.47 0.72 79.53 77.78 79.53 77.78 41"/><polygon class="cls-50" points="77.78 41 77.78 2.47 0.72 2.47 0.72 79.53 77.78 79.53 77.78 41"/><polygon class="cls-51" points="77.78 41 77.78 2.47 0.72 2.47 0.72 79.53 77.78 79.53 77.78 41"/><path class="cls-52" d="M77.78,41V20.31H88.24A53.43,53.43,0,0,0,59.94-8V2.47H18.56V-8a53.43,53.43,0,0,0-28.3,28.3H.72V61.69H-9.74A53.43,53.43,0,0,0,18.56,90V79.53H59.94V90a53.43,53.43,0,0,0,28.3-28.3H77.78Z"/><circle class="cls-53" cx="39.25" cy="41" r="50.63"/><circle class="cls-54" cx="39.25" cy="41" r="48.1"/><circle class="cls-55" cx="39.25" cy="41" r="45.57"/><circle class="cls-56" cx="39.25" cy="41" r="43.04"/><circle class="cls-57" cx="39.25" cy="41" r="40.51"/><circle class="cls-58" cx="39.25" cy="41" r="37.98"/><circle class="cls-59" cx="39.25" cy="41" r="35.44"/><circle class="cls-60" cx="39.25" cy="41" r="32.91"/><circle class="cls-61" cx="39.25" cy="41" r="30.38"/><circle class="cls-62" cx="39.25" cy="41" r="27.85"/><circle class="cls-63" cx="39.25" cy="41" r="25.32"/><circle class="cls-64" cx="39.25" cy="41" r="22.79"/><circle class="cls-65" cx="39.25" cy="41" r="20.25"/><circle class="cls-66" cx="39.25" cy="41" r="17.72"/><circle class="cls-67" cx="39.25" cy="41" r="15.19"/><circle class="cls-68" cx="39.25" cy="41" r="12.66"/><circle class="cls-69" cx="39.25" cy="41" r="10.13"/><circle class="cls-70" cx="39.25" cy="41" r="7.6"/><circle class="cls-71" cx="39.25" cy="41" r="5.06"/><circle class="cls-72" cx="39.25" cy="41" r="2.53"/></g></g><g id="InteractiveControllers" class="cls-73"><g class="cls-73"><path d="M88,28.54H93.3v24H88Z"/><path d="M97.46,36.05h4.87v2.23h.07a4.56,4.56,0,0,1,.68-1,5,5,0,0,1,1-.84,5.9,5.9,0,0,1,1.39-.61,5.66,5.66,0,0,1,1.69-.24,7.06,7.06,0,0,1,3.11.59,4.57,4.57,0,0,1,1.85,1.65,6.65,6.65,0,0,1,.89,2.47,18.42,18.42,0,0,1,.24,3.08V52.5h-5.08V44.44c0-.47,0-1,0-1.47a4.54,4.54,0,0,0-.3-1.41,2.45,2.45,0,0,0-.78-1,2.42,2.42,0,0,0-1.51-.41,3.23,3.23,0,0,0-1.59.35,2.57,2.57,0,0,0-.93.95,4,4,0,0,0-.42,1.34,11.26,11.26,0,0,0-.1,1.56V52.5H97.46Z"/><path d="M128.09,40.11h-4.47v5.48a9.44,9.44,0,0,0,.07,1.24,2.52,2.52,0,0,0,.3,1,1.62,1.62,0,0,0,.73.63,3.19,3.19,0,0,0,1.31.22,8.19,8.19,0,0,0,1.06-.09,1.8,1.8,0,0,0,1-.38V52.4a7.9,7.9,0,0,1-1.76.4,15.71,15.71,0,0,1-1.79.1,9.76,9.76,0,0,1-2.37-.27,5.42,5.42,0,0,1-1.9-.86A4.16,4.16,0,0,1,119,50.23a5.33,5.33,0,0,1-.45-2.3V40.11H115.3V36.05h3.25V31.18h5.07v4.87h4.47Z"/><path d="M146.23,49.65a8.15,8.15,0,0,1-3.08,2.41,9.29,9.29,0,0,1-3.86.84,10.3,10.3,0,0,1-3.57-.61,8.36,8.36,0,0,1-2.91-1.74,8.26,8.26,0,0,1-1.95-2.72,9.26,9.26,0,0,1,0-7.11A8.26,8.26,0,0,1,132.81,38a8.54,8.54,0,0,1,2.91-1.75,10.54,10.54,0,0,1,3.57-.61,8.26,8.26,0,0,1,3.2.61A6.71,6.71,0,0,1,144.93,38a7.94,7.94,0,0,1,1.54,2.72,11,11,0,0,1,.54,3.55v1.59H135.23a4,4,0,0,0,1.32,2.32,3.71,3.71,0,0,0,2.5.86,3.84,3.84,0,0,0,2.12-.55,6.06,6.06,0,0,0,1.51-1.44Zm-4.3-7.24a3,3,0,0,0-.84-2.2,3,3,0,0,0-2.27-.91,3.81,3.81,0,0,0-1.49.27,3.68,3.68,0,0,0-1.1.69,3.07,3.07,0,0,0-.71,1,3.25,3.25,0,0,0-.29,1.17Z"/><path d="M150.09,36.05h5.07v2.64h.07a6.15,6.15,0,0,1,1.93-2.28,4.85,4.85,0,0,1,2.81-.77,8.64,8.64,0,0,1,.88,0,4,4,0,0,1,.81.13v4.64a8.61,8.61,0,0,0-1.06-.26,7.8,7.8,0,0,0-1.1-.08,5.46,5.46,0,0,0-2.31.41,3.06,3.06,0,0,0-1.3,1.13,4.42,4.42,0,0,0-.59,1.74,17,17,0,0,0-.14,2.24V52.5h-5.07Z"/><path d="M174.18,50.43h-.06a4.88,4.88,0,0,1-2.25,1.9,7.85,7.85,0,0,1-3,.57,7.43,7.43,0,0,1-2.21-.32,5.49,5.49,0,0,1-1.88-1A4.76,4.76,0,0,1,163.52,50a5,5,0,0,1-.47-2.2,5.08,5.08,0,0,1,.52-2.41A4.74,4.74,0,0,1,165,43.8a7.05,7.05,0,0,1,2-1,14.51,14.51,0,0,1,2.39-.52,22.86,22.86,0,0,1,2.47-.21l2.28,0a2.65,2.65,0,0,0-1-2.15,3.48,3.48,0,0,0-2.28-.8,5,5,0,0,0-2.29.53,6.18,6.18,0,0,0-1.84,1.44l-2.71-2.78a9.29,9.29,0,0,1,3.32-2,11.82,11.82,0,0,1,3.92-.66,10.3,10.3,0,0,1,3.67.56,5.29,5.29,0,0,1,2.3,1.64,6.33,6.33,0,0,1,1.21,2.66,17.87,17.87,0,0,1,.33,3.64V52.5h-4.67Zm-1.25-5.14c-.38,0-.86,0-1.44.05a6.87,6.87,0,0,0-1.65.29,3.46,3.46,0,0,0-1.36.71,1.63,1.63,0,0,0-.56,1.32A1.44,1.44,0,0,0,168.7,49a3.3,3.3,0,0,0,1.63.44,5.38,5.38,0,0,0,1.44-.2,4.36,4.36,0,0,0,1.23-.58,2.71,2.71,0,0,0,.86-1,2.65,2.65,0,0,0,.32-1.35V45.29Z"/><path d="M193.17,41.36a2.92,2.92,0,0,0-1-.9,3.18,3.18,0,0,0-1.46-.35,3.87,3.87,0,0,0-3,1.15,4.77,4.77,0,0,0,0,6,3.87,3.87,0,0,0,3,1.16,2.74,2.74,0,0,0,1.46-.38,4.31,4.31,0,0,0,1-.88l3.35,3.52a6.43,6.43,0,0,1-2.79,1.71,10.43,10.43,0,0,1-3.07.49,10.2,10.2,0,0,1-3.56-.61,8.5,8.5,0,0,1-2.92-1.74,8.09,8.09,0,0,1-1.94-2.72,9.26,9.26,0,0,1,0-7.11A8.09,8.09,0,0,1,184.18,38a8.68,8.68,0,0,1,2.92-1.75,10.44,10.44,0,0,1,3.56-.61,10.77,10.77,0,0,1,3.07.49,6.53,6.53,0,0,1,2.79,1.71Z"/><path d="M209.55,40.11h-4.47v5.48a9.44,9.44,0,0,0,.07,1.24,2.52,2.52,0,0,0,.3,1,1.57,1.57,0,0,0,.73.63,3.19,3.19,0,0,0,1.31.22,8.19,8.19,0,0,0,1.06-.09,1.8,1.8,0,0,0,1-.38V52.4a7.9,7.9,0,0,1-1.76.4,15.71,15.71,0,0,1-1.79.1,9.76,9.76,0,0,1-2.37-.27,5.42,5.42,0,0,1-1.9-.86,4.16,4.16,0,0,1-1.27-1.54,5.33,5.33,0,0,1-.46-2.3V40.11h-3.24V36.05H200V31.18h5.08v4.87h4.47Z"/><path d="M211.78,30.87a2.95,2.95,0,0,1,5-2.08,2.95,2.95,0,0,1,0,4.16,3,3,0,0,1-5-2.08Zm.41,5.18h5.08V52.5h-5.08Z"/><path d="M219.19,36.05h5.49l4.16,11.17h.07l3.85-11.17h5.12l-6.5,16.45H226Z"/><path d="M255.31,49.65a8.22,8.22,0,0,1-3.08,2.41,9.32,9.32,0,0,1-3.86.84,10.22,10.22,0,0,1-3.57-.61,8.36,8.36,0,0,1-2.91-1.74,8,8,0,0,1-1.95-2.72,9.26,9.26,0,0,1,0-7.11A8,8,0,0,1,241.89,38a8.54,8.54,0,0,1,2.91-1.75,10.46,10.46,0,0,1,3.57-.61,8.26,8.26,0,0,1,3.2.61A6.59,6.59,0,0,1,254,38a7.78,7.78,0,0,1,1.54,2.72,11,11,0,0,1,.54,3.55v1.59H244.31a4,4,0,0,0,1.32,2.32,3.69,3.69,0,0,0,2.5.86,3.84,3.84,0,0,0,2.12-.55,6,6,0,0,0,1.5-1.44ZM251,42.41a2.94,2.94,0,0,0-.85-2.2,3,3,0,0,0-2.27-.91,3.76,3.76,0,0,0-1.48.27,3.68,3.68,0,0,0-1.1.69,2.93,2.93,0,0,0-.71,1,3.05,3.05,0,0,0-.29,1.17Z"/></g><g class="cls-73"><path d="M280.38,48.74a10.15,10.15,0,0,1-4,3.35,11.83,11.83,0,0,1-4.91,1,13.16,13.16,0,0,1-5-.93,11.33,11.33,0,0,1-3.91-2.61,12.1,12.1,0,0,1-2.54-4,14.35,14.35,0,0,1,0-10.11,12,12,0,0,1,2.54-4,11.52,11.52,0,0,1,3.91-2.63,13,13,0,0,1,5-.94,11.81,11.81,0,0,1,4.55.86,9.11,9.11,0,0,1,3.71,2.89l-1.83,1.53a6.54,6.54,0,0,0-2.86-2.47,8.64,8.64,0,0,0-3.57-.78,10.54,10.54,0,0,0-4.21.81,9.49,9.49,0,0,0-3.2,2.23,9.9,9.9,0,0,0-2,3.35,12.57,12.57,0,0,0,0,8.33,9.8,9.8,0,0,0,2,3.35,9.36,9.36,0,0,0,3.2,2.23,10.54,10.54,0,0,0,4.21.82,8.71,8.71,0,0,0,3.81-.9A9.8,9.8,0,0,0,277.07,49a7.35,7.35,0,0,0,1.49-1.68Z"/><path d="M283,44.68a8.81,8.81,0,0,1,.61-3.3,8,8,0,0,1,1.69-2.61,7.69,7.69,0,0,1,2.61-1.71,9.29,9.29,0,0,1,6.62,0,7.84,7.84,0,0,1,2.6,1.71,7.73,7.73,0,0,1,1.71,2.61,9.23,9.23,0,0,1,0,6.6,7.83,7.83,0,0,1-1.71,2.61,7.67,7.67,0,0,1-2.6,1.7,9.29,9.29,0,0,1-6.62,0,7.52,7.52,0,0,1-2.61-1.7A8.1,8.1,0,0,1,283.63,48,8.81,8.81,0,0,1,283,44.68Zm2,0a7.08,7.08,0,0,0,.43,2.49,5.82,5.82,0,0,0,1.23,2,6.12,6.12,0,0,0,2,1.37,6.76,6.76,0,0,0,5.15,0,5.82,5.82,0,0,0,3.2-3.4,7.59,7.59,0,0,0,0-5,5.82,5.82,0,0,0-3.2-3.4,6.76,6.76,0,0,0-5.15,0,6.12,6.12,0,0,0-2,1.37,5.82,5.82,0,0,0-1.23,2A7.08,7.08,0,0,0,285.05,44.68Z"/><path d="M304,41.26c0-.29,0-.65,0-1.07s0-.84-.05-1.26,0-.83-.05-1.21,0-.66,0-.86h2c0,.59,0,1.15.05,1.69A5.75,5.75,0,0,0,306,39.6h.1a5.59,5.59,0,0,1,2-2.21,5.87,5.87,0,0,1,3.32-.94,6.73,6.73,0,0,1,3,.58,4.75,4.75,0,0,1,1.81,1.51,5.62,5.62,0,0,1,.91,2.15,12.12,12.12,0,0,1,.26,2.5V52.5h-2V43.29a10.16,10.16,0,0,0-.17-1.84,5.06,5.06,0,0,0-.59-1.61,3.08,3.08,0,0,0-1.19-1.13,4,4,0,0,0-2-.43,5.82,5.82,0,0,0-2.12.39,4.56,4.56,0,0,0-1.72,1.19,5.61,5.61,0,0,0-1.15,2,8.61,8.61,0,0,0-.42,2.83V52.5h-2Z"/><path d="M330.47,38.69H326V48.88a2,2,0,0,0,2.17,2.2,4.84,4.84,0,0,0,1.17-.16,7.17,7.17,0,0,0,1.13-.39l.17,1.83a10.67,10.67,0,0,1-1.32.37,5.68,5.68,0,0,1-1.32.17,4.76,4.76,0,0,1-1.86-.32,3.2,3.2,0,0,1-1.25-.86,3.43,3.43,0,0,1-.7-1.27,5.67,5.67,0,0,1-.22-1.57V38.69h-3.38V36.86H324v-4.5h2v4.5h4.47Z"/><path d="M334.09,41.26c0-.29,0-.65,0-1.07s0-.84-.05-1.26,0-.83-.05-1.21,0-.66,0-.86h2c0,.59,0,1.15.05,1.69a5.43,5.43,0,0,0,.09,1.05,7.05,7.05,0,0,1,2-2.27,5,5,0,0,1,3-.88,3,3,0,0,1,.6.06l.59.11-.24,2a2.45,2.45,0,0,0-.78-.13,5.66,5.66,0,0,0-2.28.42,4.2,4.2,0,0,0-1.59,1.17,4.7,4.7,0,0,0-.93,1.74,7.07,7.07,0,0,0-.31,2.15V52.5h-2Z"/><path d="M343.87,44.68a8.81,8.81,0,0,1,.61-3.3,8,8,0,0,1,1.69-2.61,7.69,7.69,0,0,1,2.61-1.71,9,9,0,0,1,3.32-.61,8.89,8.89,0,0,1,3.3.61,7.84,7.84,0,0,1,2.6,1.71,7.73,7.73,0,0,1,1.71,2.61,9.23,9.23,0,0,1,0,6.6A7.83,7.83,0,0,1,358,50.59a7.67,7.67,0,0,1-2.6,1.7,8.69,8.69,0,0,1-3.3.61,8.79,8.79,0,0,1-3.32-.61,7.52,7.52,0,0,1-2.61-1.7A8.1,8.1,0,0,1,344.48,48,8.81,8.81,0,0,1,343.87,44.68Zm2,0a7.08,7.08,0,0,0,.43,2.49,5.82,5.82,0,0,0,1.23,2,6.12,6.12,0,0,0,2,1.37,6.76,6.76,0,0,0,5.15,0,6.12,6.12,0,0,0,2-1.37,6,6,0,0,0,1.24-2,7.59,7.59,0,0,0,0-5,6,6,0,0,0-1.24-2,6.12,6.12,0,0,0-2-1.37,6.76,6.76,0,0,0-5.15,0,6.12,6.12,0,0,0-2,1.37,5.82,5.82,0,0,0-1.23,2A7.08,7.08,0,0,0,345.9,44.68Z"/><path d="M365.19,26.91h2V52.5h-2Z"/><path d="M373.35,26.91h2V52.5h-2Z"/><path d="M394.94,49.55A6.72,6.72,0,0,1,392,52.12a9.28,9.28,0,0,1-3.84.78,8.29,8.29,0,0,1-3.25-.61,7.25,7.25,0,0,1-2.5-1.7A7.59,7.59,0,0,1,380.81,48a9.57,9.57,0,0,1-.56-3.33,8.78,8.78,0,0,1,.58-3.25,7.62,7.62,0,0,1,4.09-4.32,7.71,7.71,0,0,1,3.15-.63,7.54,7.54,0,0,1,3.17.63,7,7,0,0,1,2.3,1.66,7.09,7.09,0,0,1,1.4,2.35,7.77,7.77,0,0,1,.48,2.68v1.42H382.28a7,7,0,0,0,.26,1.64,5.86,5.86,0,0,0,.93,1.94,5.73,5.73,0,0,0,1.81,1.63,5.67,5.67,0,0,0,2.93.68,6.51,6.51,0,0,0,3-.75,5.43,5.43,0,0,0,2.23-2Zm-1.55-6.19a4.64,4.64,0,0,0-.43-2,5.1,5.1,0,0,0-1.15-1.61,5.45,5.45,0,0,0-1.72-1.1,5.63,5.63,0,0,0-2.12-.41,5.2,5.2,0,0,0-2.76.68,6,6,0,0,0-1.74,1.56,6.25,6.25,0,0,0-.92,1.71,4.53,4.53,0,0,0-.27,1.13Z"/><path d="M400,41.26c0-.29,0-.65,0-1.07s0-.84-.06-1.26,0-.83,0-1.21,0-.66,0-.86h2c0,.59,0,1.15.05,1.69A4.7,4.7,0,0,0,402,39.6a6.94,6.94,0,0,1,2-2.27,5,5,0,0,1,3-.88,2.88,2.88,0,0,1,.59.06l.6.11-.24,2a2.45,2.45,0,0,0-.78-.13,5.66,5.66,0,0,0-2.28.42,4.12,4.12,0,0,0-1.59,1.17,4.87,4.87,0,0,0-.94,1.74A7.4,7.4,0,0,0,402,44V52.5h-2Z"/><path d="M411.25,48.5a4.28,4.28,0,0,0,1.9,1.91,5.45,5.45,0,0,0,2.64.67,4,4,0,0,0,1.28-.21,3.64,3.64,0,0,0,1.15-.57,3.09,3.09,0,0,0,.83-.9,2.21,2.21,0,0,0,.33-1.2,2,2,0,0,0-.7-1.63,5.06,5.06,0,0,0-1.71-.84,21.6,21.6,0,0,0-2.23-.53,9.59,9.59,0,0,1-2.24-.67,4.9,4.9,0,0,1-1.7-1.27,3.4,3.4,0,0,1-.7-2.3,4,4,0,0,1,.48-2,4.39,4.39,0,0,1,1.23-1.41,5.41,5.41,0,0,1,1.71-.82,6.63,6.63,0,0,1,1.93-.28,7.18,7.18,0,0,1,3.33.72A4.88,4.88,0,0,1,421,39.4l-1.83,1.08a4.31,4.31,0,0,0-1.44-1.64,4.1,4.1,0,0,0-2.25-.56,4.19,4.19,0,0,0-1.13.17,3.72,3.72,0,0,0-1.07.48,2.64,2.64,0,0,0-.79.77,1.87,1.87,0,0,0-.33,1.09,1.76,1.76,0,0,0,.7,1.55,5.21,5.21,0,0,0,1.71.8,22,22,0,0,0,2.23.49,8.92,8.92,0,0,1,2.23.66,4.44,4.44,0,0,1,1.71,1.32,3.82,3.82,0,0,1,.7,2.45,4.67,4.67,0,0,1-.46,2.12,4.46,4.46,0,0,1-1.25,1.51,5.71,5.71,0,0,1-1.81.91,7.53,7.53,0,0,1-2.14.3,8.67,8.67,0,0,1-3.7-.78,5.58,5.58,0,0,1-2.59-2.4Z"/></g></g></g></svg>