<svg id="Vrstva_1" data-name="Vrstva 1" xmlns="http://www.w3.org/2000/svg" xmlns:xlink="http://www.w3.org/1999/xlink" viewBox="0 0 424 82"><defs><style>.cls-1,.cls-3{fill:none;}.cls-2{clip-path:url(#clip-path);}.cls-3{stroke:#fff;stroke-miterlimit:10;}.cls-4{fill:#fff;}.cls-5{isolation:isolate;}</style><clipPath id="clip-path"><path class="cls-1" d="M-2084-45V918.14a12099.29,12099.29,0,0,1,1920,0V-45Z"/></clipPath></defs><g id="Group_35" data-name="Group 35"><g class="cls-2"><g id="Group_34" data-name="Group 34"><path id="Path_49" data-name="Path 49" class="cls-3" d="M145.94-939S159.73-435.93-277.6-6.78-512.85,974.18-49.15,1185"/><path id="Path_50" data-name="Path 50" class="cls-3" d="M252.26-686S322.34-325.47,49.34-63.28s-634.2,528.21-128.17,1140"/></g></g></g><g id="Group_19" data-name="Group 19"><g id="Path_43" data-name="Path 43"><path class="cls-4" d="M38.66,4.63A36.37,36.37,0,1,0,75,41,36.37,36.37,0,0,0,38.66,4.63Zm-9.38,38,6.32-9.07h0a2.21,2.21,0,0,1,3.09-.44h0L46,38.59l5.13-7.36a2.22,2.22,0,0,1,3.55,2.66L48.19,43h0a2.2,2.2,0,0,1-3.09.43h0L37.84,38l-5.13,7.36a2.24,2.24,0,0,1-1.71.89v-.05a2.21,2.21,0,0,1-1.72-3.55ZM56.86,60.55H27.11a8.84,8.84,0,0,1-8.84-8.84h0V23.65a2.21,2.21,0,0,1,4.41,0V51.7a4.44,4.44,0,0,0,4.44,4.42H56.86v0a2.21,2.21,0,0,1,0,4.41Z"/></g><g id="InteractiveControllers" class="cls-5"><g class="cls-5"><path class="cls-4" d="M88.07,27.73h5.29v24H88.07Z"/><path class="cls-4" d="M97.52,35.25h4.88v2.23h.07a4.49,4.49,0,0,1,.67-.95,5.3,5.3,0,0,1,1.06-.84,5.86,5.86,0,0,1,3.08-.85,7.06,7.06,0,0,1,3.11.59,4.57,4.57,0,0,1,1.85,1.65,6.66,6.66,0,0,1,.9,2.47,19.69,19.69,0,0,1,.23,3.08v9.08h-5.08V43.65c0-.48,0-1-.05-1.48a4.54,4.54,0,0,0-.3-1.4,2.2,2.2,0,0,0-2.29-1.46,3.12,3.12,0,0,0-1.59.36,2.3,2.3,0,0,0-.93.95,3.58,3.58,0,0,0-.42,1.33,11.23,11.23,0,0,0-.11,1.56v8.2H97.52Z"/><path class="cls-4" d="M128.17,39.31H123.7V44.8a11.36,11.36,0,0,0,.07,1.23,2.52,2.52,0,0,0,.31,1,1.54,1.54,0,0,0,.72.63,3.36,3.36,0,0,0,1.31.22,8.19,8.19,0,0,0,1.06-.09,1.74,1.74,0,0,0,1-.39v4.24a7.9,7.9,0,0,1-1.76.4,15.71,15.71,0,0,1-1.79.1,9.76,9.76,0,0,1-2.37-.27,5.42,5.42,0,0,1-1.9-.86,4.16,4.16,0,0,1-1.27-1.54,5.33,5.33,0,0,1-.46-2.3V39.31h-3.25V35.25h3.25V30.37h5.08v4.88h4.47Z"/><path class="cls-4" d="M146.33,48.86a8.18,8.18,0,0,1-3.09,2.41,9.26,9.26,0,0,1-3.86.84,10.3,10.3,0,0,1-3.57-.61,8.36,8.36,0,0,1-2.91-1.74A8.12,8.12,0,0,1,131,47a9.26,9.26,0,0,1,0-7.11,8,8,0,0,1,2-2.72,8.54,8.54,0,0,1,2.91-1.75,10.3,10.3,0,0,1,3.57-.61,8,8,0,0,1,3.2.61A6.63,6.63,0,0,1,145,37.2a7.78,7.78,0,0,1,1.54,2.72,11,11,0,0,1,.55,3.56v1.59H135.32a4,4,0,0,0,1.32,2.32,4.16,4.16,0,0,0,4.62.3,5.57,5.57,0,0,0,1.51-1.44ZM142,41.61a2.91,2.91,0,0,0-.84-2.2,3,3,0,0,0-2.27-.91,3.81,3.81,0,0,0-1.49.27,3.68,3.68,0,0,0-1.1.69,3,3,0,0,0-.71,1,3.15,3.15,0,0,0-.29,1.16Z"/><path class="cls-4" d="M150.19,35.25h5.08v2.64h.07a6.25,6.25,0,0,1,1.92-2.29,4.9,4.9,0,0,1,2.82-.76l.88,0a4.88,4.88,0,0,1,.81.14v4.64a7.18,7.18,0,0,0-1.07-.25,6.45,6.45,0,0,0-1.1-.09,5.38,5.38,0,0,0-2.3.41,3.07,3.07,0,0,0-1.3,1.13,4.27,4.27,0,0,0-.6,1.75,17,17,0,0,0-.13,2.23v6.88h-5.08Z"/><path class="cls-4" d="M174.3,49.64h-.06a4.85,4.85,0,0,1-2.26,1.9,7.76,7.76,0,0,1-3,.57,7.45,7.45,0,0,1-2.22-.32,5.49,5.49,0,0,1-1.88-1,4.7,4.7,0,0,1-1.29-1.6,4.92,4.92,0,0,1-.47-2.2,5,5,0,0,1,.52-2.4A4.68,4.68,0,0,1,165.11,43a7.38,7.38,0,0,1,2-1,15.24,15.24,0,0,1,2.38-.52,23,23,0,0,1,2.48-.2c.82,0,1.58,0,2.28,0a2.65,2.65,0,0,0-1-2.15,3.5,3.5,0,0,0-2.29-.79,5,5,0,0,0-2.29.52,6.31,6.31,0,0,0-1.84,1.44l-2.71-2.78a9.29,9.29,0,0,1,3.32-2,11.83,11.83,0,0,1,3.93-.66,10.3,10.3,0,0,1,3.67.56,5.29,5.29,0,0,1,2.3,1.64,6.33,6.33,0,0,1,1.21,2.66,17.89,17.89,0,0,1,.34,3.64v8.37H174.3Zm-1.25-5.15c-.39,0-.87,0-1.44,0a7.49,7.49,0,0,0-1.66.29,3.91,3.91,0,0,0-1.36.71,1.65,1.65,0,0,0-.55,1.32,1.47,1.47,0,0,0,.77,1.36,3.33,3.33,0,0,0,1.63.44,5.27,5.27,0,0,0,1.44-.2,4.56,4.56,0,0,0,1.24-.58,2.81,2.81,0,0,0,.86-1,2.75,2.75,0,0,0,.32-1.35V44.49Z"/><path class="cls-4" d="M193.3,40.56a2.8,2.8,0,0,0-1.05-.89,3.06,3.06,0,0,0-1.46-.36,3.9,3.9,0,0,0-3,1.15,4.78,4.78,0,0,0,0,6,3.87,3.87,0,0,0,3,1.15,2.71,2.71,0,0,0,1.46-.37,4.31,4.31,0,0,0,1.05-.88l3.35,3.52a6.43,6.43,0,0,1-2.79,1.71,10.43,10.43,0,0,1-3.07.49,10.3,10.3,0,0,1-3.57-.61,8.36,8.36,0,0,1-2.91-1.74A8.12,8.12,0,0,1,182.36,47a9.26,9.26,0,0,1,0-7.11,8,8,0,0,1,1.95-2.72,8.54,8.54,0,0,1,2.91-1.75,10.3,10.3,0,0,1,3.57-.61,10.43,10.43,0,0,1,3.07.49A6.53,6.53,0,0,1,196.65,37Z"/><path class="cls-4" d="M209.69,39.31h-4.47V44.8a9.28,9.28,0,0,0,.07,1.23,2.52,2.52,0,0,0,.3,1,1.57,1.57,0,0,0,.73.63,3.4,3.4,0,0,0,1.31.22,8.19,8.19,0,0,0,1.06-.09,1.77,1.77,0,0,0,1-.39v4.24a7.9,7.9,0,0,1-1.76.4,15.71,15.71,0,0,1-1.79.1,9.76,9.76,0,0,1-2.37-.27,5.42,5.42,0,0,1-1.9-.86,4.07,4.07,0,0,1-1.27-1.54,5.18,5.18,0,0,1-.46-2.3V39.31h-3.25V35.25h3.25V30.37h5.08v4.88h4.47Z"/><path class="cls-4" d="M211.93,30.07a2.94,2.94,0,1,1,.86,2.08A2.87,2.87,0,0,1,211.93,30.07Zm.4,5.18h5.09V51.71h-5.09Z"/><path class="cls-4" d="M219.34,35.25h5.49L229,46.42h.06l3.87-11.17H238l-6.5,16.46h-5.39Z"/><path class="cls-4" d="M255.48,48.86a8.15,8.15,0,0,1-3.08,2.41,9.29,9.29,0,0,1-3.86.84A10.22,10.22,0,0,1,245,51.5a8.5,8.5,0,0,1-2.92-1.74A8.23,8.23,0,0,1,240.11,47a9.14,9.14,0,0,1,0-7.11,8.09,8.09,0,0,1,1.94-2.72A8.68,8.68,0,0,1,245,35.45a10.22,10.22,0,0,1,3.57-.61,8.08,8.08,0,0,1,3.2.61,6.71,6.71,0,0,1,2.44,1.75,7.94,7.94,0,0,1,1.54,2.72,11,11,0,0,1,.54,3.56v1.59H244.47a4.07,4.07,0,0,0,1.33,2.32,4.16,4.16,0,0,0,4.62.3,5.72,5.72,0,0,0,1.51-1.44Zm-4.3-7.25a3,3,0,0,0-.85-2.2,3,3,0,0,0-2.27-.91,3.76,3.76,0,0,0-1.48.27,3.86,3.86,0,0,0-1.11.69,3.16,3.16,0,0,0-.71,1,3.36,3.36,0,0,0-.29,1.16Z"/></g><g class="cls-5"><path class="cls-4" d="M280.58,48a10.17,10.17,0,0,1-4,3.35,11.83,11.83,0,0,1-4.91,1,13.25,13.25,0,0,1-5-.93,11.42,11.42,0,0,1-3.91-2.61,12,12,0,0,1-2.54-4,14.5,14.5,0,0,1,0-10.11,12.16,12.16,0,0,1,2.54-4,11.59,11.59,0,0,1,3.91-2.62,13.06,13.06,0,0,1,5-.95,12,12,0,0,1,4.55.86,9,9,0,0,1,3.71,2.9l-1.82,1.52a6.63,6.63,0,0,0-2.87-2.47,8.64,8.64,0,0,0-3.57-.78,10.59,10.59,0,0,0-4.22.81,9.52,9.52,0,0,0-3.2,2.24,10.06,10.06,0,0,0-2,3.35,12.57,12.57,0,0,0,0,8.33,10,10,0,0,0,2,3.36,9.49,9.49,0,0,0,3.2,2.23,10.59,10.59,0,0,0,4.22.81,8.88,8.88,0,0,0,3.81-.89,9.8,9.8,0,0,0,1.78-1.15,7.8,7.8,0,0,0,1.49-1.68Z"/><path class="cls-4" d="M283.22,43.88a8.69,8.69,0,0,1,.61-3.3A8.1,8.1,0,0,1,285.52,38a7.69,7.69,0,0,1,2.61-1.71,9,9,0,0,1,3.32-.61,8.81,8.81,0,0,1,3.3.61A7.89,7.89,0,0,1,297.36,38a8,8,0,0,1,1.71,2.61,9.26,9.26,0,0,1,0,6.61,7.84,7.84,0,0,1-1.71,2.6,7.59,7.59,0,0,1-2.61,1.71,8.62,8.62,0,0,1-3.3.61,8.79,8.79,0,0,1-3.32-.61,7.4,7.4,0,0,1-2.61-1.71,8,8,0,0,1-1.69-2.6A8.7,8.7,0,0,1,283.22,43.88Zm2,0a7.31,7.31,0,0,0,.42,2.49,5.78,5.78,0,0,0,3.21,3.41,6.85,6.85,0,0,0,5.14,0,6.05,6.05,0,0,0,2-1.37,5.86,5.86,0,0,0,1.23-2,7.42,7.42,0,0,0,0-5,5.91,5.91,0,0,0-1.23-2A6.05,6.05,0,0,0,294,38a6.73,6.73,0,0,0-5.14,0,5.8,5.8,0,0,0-3.21,3.4A7.31,7.31,0,0,0,285.25,43.88Z"/><path class="cls-4" d="M304.22,40.46c0-.29,0-.65,0-1.06s0-.85-.05-1.27,0-.83-.05-1.21,0-.66,0-.86h2c0,.59,0,1.15.05,1.69a4.62,4.62,0,0,0,.09,1h.1a5.53,5.53,0,0,1,2-2.22,5.92,5.92,0,0,1,3.32-.93,6.73,6.73,0,0,1,3,.58,4.75,4.75,0,0,1,1.81,1.51,5.79,5.79,0,0,1,.92,2.15,12.92,12.92,0,0,1,.25,2.5v9.32h-2V42.49a10.16,10.16,0,0,0-.17-1.84,4.84,4.84,0,0,0-.6-1.61,3.06,3.06,0,0,0-1.18-1.13,4,4,0,0,0-2-.43,5.78,5.78,0,0,0-2.12.39,4.59,4.59,0,0,0-1.73,1.19,5.72,5.72,0,0,0-1.15,2,8.54,8.54,0,0,0-.42,2.82v7.83h-2Z"/><path class="cls-4" d="M330.7,37.89h-4.47V48.08a2.18,2.18,0,0,0,.58,1.63,2.15,2.15,0,0,0,1.59.57,4.82,4.82,0,0,0,1.17-.15,7.17,7.17,0,0,0,1.13-.39l.17,1.83a10.2,10.2,0,0,1-1.32.37,5.68,5.68,0,0,1-1.32.17,4.76,4.76,0,0,1-1.86-.32,3.32,3.32,0,0,1-1.26-.86,3.56,3.56,0,0,1-.69-1.27,5.34,5.34,0,0,1-.22-1.58V37.89h-3.39V36.06h3.39v-4.5h2v4.5h4.47Z"/><path class="cls-4" d="M334.32,40.46c0-.29,0-.65,0-1.06s0-.85-.05-1.27,0-.83-.05-1.21,0-.66,0-.86h2c0,.59,0,1.15.05,1.69a5.65,5.65,0,0,0,.08,1,7.08,7.08,0,0,1,2-2.27,5,5,0,0,1,3-.88,3.7,3.7,0,0,1,.59.05l.6.12-.24,2a2.45,2.45,0,0,0-.78-.13,5.66,5.66,0,0,0-2.28.42,4.24,4.24,0,0,0-1.6,1.17,5.1,5.1,0,0,0-.93,1.74,7.5,7.5,0,0,0-.3,2.15v8.54h-2Z"/><path class="cls-4" d="M344.11,43.88a8.89,8.89,0,0,1,.61-3.3A8.1,8.1,0,0,1,346.41,38,7.78,7.78,0,0,1,349,36.26a9,9,0,0,1,3.32-.61,8.9,8.9,0,0,1,3.31.61,7.84,7.84,0,0,1,2.6,1.71A7.68,7.68,0,0,1,360,40.58a9.26,9.26,0,0,1,0,6.61,7.69,7.69,0,0,1-4.31,4.31,8.7,8.7,0,0,1-3.31.61A8.83,8.83,0,0,1,349,51.5a7.49,7.49,0,0,1-2.61-1.71,8,8,0,0,1-1.69-2.6A8.9,8.9,0,0,1,344.11,43.88Zm2,0a7.32,7.32,0,0,0,.43,2.49,5.86,5.86,0,0,0,1.23,2,6.16,6.16,0,0,0,2,1.37,6.88,6.88,0,0,0,5.15,0,6.12,6.12,0,0,0,2-1.37,6,6,0,0,0,1.24-2,7.59,7.59,0,0,0,0-5,5.82,5.82,0,0,0-3.2-3.4,6.76,6.76,0,0,0-5.15,0,6.16,6.16,0,0,0-2,1.37,5.91,5.91,0,0,0-1.23,2A7.32,7.32,0,0,0,346.14,43.88Z"/><path class="cls-4" d="M365.45,26.1h2V51.71h-2Z"/><path class="cls-4" d="M373.61,26.1h2V51.71h-2Z"/><path class="cls-4" d="M395.22,48.76a6.77,6.77,0,0,1-2.93,2.57,9.33,9.33,0,0,1-3.85.78,8.29,8.29,0,0,1-3.25-.61,7.14,7.14,0,0,1-2.5-1.71,7.45,7.45,0,0,1-1.61-2.6,9.63,9.63,0,0,1-.56-3.34,9,9,0,0,1,.57-3.25A7.86,7.86,0,0,1,382.72,38a7.58,7.58,0,0,1,5.62-2.36,7.5,7.5,0,0,1,3.17.63,7,7,0,0,1,2.3,1.66,7.12,7.12,0,0,1,1.41,2.35,7.8,7.8,0,0,1,.47,2.68v1.42H382.55a6.9,6.9,0,0,0,.26,1.64,5.62,5.62,0,0,0,.93,1.95,5.85,5.85,0,0,0,1.81,1.63,5.67,5.67,0,0,0,2.93.67,6.47,6.47,0,0,0,3-.74,5.46,5.46,0,0,0,2.24-2Zm-1.56-6.2a4.63,4.63,0,0,0-.42-2A5.27,5.27,0,0,0,392.09,39a5.64,5.64,0,0,0-3.85-1.51,5.23,5.23,0,0,0-2.76.68,6,6,0,0,0-1.74,1.56,6.26,6.26,0,0,0-.92,1.71,4.53,4.53,0,0,0-.27,1.13Z"/><path class="cls-4" d="M400.23,40.46c0-.29,0-.65,0-1.06s0-.85-.05-1.27,0-.83,0-1.21,0-.66,0-.86h2c0,.59,0,1.15.05,1.69a5.33,5.33,0,0,0,.09,1,7,7,0,0,1,2-2.27,5,5,0,0,1,3-.88,3.81,3.81,0,0,1,.59.05l.59.12-.23,2a2.5,2.5,0,0,0-.78-.13,5.71,5.71,0,0,0-2.29.42,4.28,4.28,0,0,0-1.59,1.17,4.78,4.78,0,0,0-.93,1.74,7.17,7.17,0,0,0-.31,2.15v8.54h-2Z"/><path class="cls-4" d="M411.54,47.71a4.33,4.33,0,0,0,1.9,1.91,5.56,5.56,0,0,0,2.64.66,4.13,4.13,0,0,0,1.29-.2,4,4,0,0,0,1.15-.57,3.23,3.23,0,0,0,.83-.9,2.29,2.29,0,0,0,.32-1.2,1.94,1.94,0,0,0-.69-1.63,5.47,5.47,0,0,0-1.71-.85,22.55,22.55,0,0,0-2.24-.52,9.6,9.6,0,0,1-2.24-.68,4.78,4.78,0,0,1-1.7-1.27,3.4,3.4,0,0,1-.7-2.3,4,4,0,0,1,.48-2,4.39,4.39,0,0,1,1.23-1.41,5.41,5.41,0,0,1,1.71-.82,6.68,6.68,0,0,1,1.93-.28,7.38,7.38,0,0,1,3.34.71,4.93,4.93,0,0,1,2.18,2.24l-1.83,1.08A4.23,4.23,0,0,0,418,38a4.07,4.07,0,0,0-2.25-.56,4.19,4.19,0,0,0-1.13.17,3.72,3.72,0,0,0-1.07.48,2.7,2.7,0,0,0-.8.78,1.88,1.88,0,0,0-.32,1.08,1.79,1.79,0,0,0,.7,1.56,5.21,5.21,0,0,0,1.71.79,19.59,19.59,0,0,0,2.23.49,9.44,9.44,0,0,1,2.24.66A4.72,4.72,0,0,1,421,44.81a3.87,3.87,0,0,1,.69,2.46,4.7,4.7,0,0,1-.45,2.12A4.49,4.49,0,0,1,420,50.9a5.6,5.6,0,0,1-1.81.91,7.51,7.51,0,0,1-2.13.3,8.68,8.68,0,0,1-3.71-.78,5.58,5.58,0,0,1-2.59-2.4Z"/></g></g></g></svg>